<svg width="110" height="45" viewBox="0 0 110 45" fill="none" xmlns="http://www.w3.org/2000/svg">
<rect width="110" height="45" rx="22.5" fill="#C2278E"/>
<path d="M20.504 28.654C19.664 28.654 18.9967 28.4953 18.502 28.178C18.0167 27.8607 17.676 27.422 17.48 26.862C17.284 26.2927 17.186 25.6347 17.186 24.888V20.814C17.186 20.03 17.284 19.358 17.48 18.798C17.676 18.2287 18.0167 17.79 18.502 17.482C18.9967 17.174 19.664 17.02 20.504 17.02C21.316 17.02 21.9507 17.1553 22.408 17.426C22.8747 17.6967 23.2013 18.0793 23.388 18.574C23.584 19.0687 23.682 19.6427 23.682 20.296V21.248H21.442V20.184C21.442 19.9227 21.428 19.68 21.4 19.456C21.372 19.2227 21.2927 19.036 21.162 18.896C21.0407 18.7467 20.826 18.672 20.518 18.672C20.21 18.672 19.986 18.7467 19.846 18.896C19.706 19.0453 19.6173 19.2413 19.58 19.484C19.5427 19.7173 19.524 19.9787 19.524 20.268V25.42C19.524 25.7373 19.5473 26.0173 19.594 26.26C19.65 26.4933 19.748 26.6753 19.888 26.806C20.0373 26.9273 20.2473 26.988 20.518 26.988C20.8167 26.988 21.0267 26.918 21.148 26.778C21.2787 26.6287 21.358 26.4327 21.386 26.19C21.4233 25.9473 21.442 25.6907 21.442 25.42V24.314H23.682V25.252C23.682 25.9147 23.5887 26.5027 23.402 27.016C23.2153 27.52 22.8933 27.9213 22.436 28.22C21.9787 28.5093 21.3347 28.654 20.504 28.654ZM29.0963 28.654C28.2656 28.654 27.6076 28.5047 27.1223 28.206C26.6369 27.9073 26.2869 27.4827 26.0723 26.932C25.8669 26.372 25.7643 25.7047 25.7643 24.93V20.702C25.7643 19.9273 25.8669 19.2647 26.0723 18.714C26.2869 18.1633 26.6369 17.7433 27.1223 17.454C27.6076 17.1647 28.2656 17.02 29.0963 17.02C29.9363 17.02 30.5989 17.1693 31.0843 17.468C31.5789 17.7573 31.9289 18.1773 32.1343 18.728C32.3489 19.2693 32.4563 19.9273 32.4563 20.702V24.93C32.4563 25.7047 32.3489 26.372 32.1343 26.932C31.9289 27.4827 31.5789 27.9073 31.0843 28.206C30.5989 28.5047 29.9363 28.654 29.0963 28.654ZM29.0963 26.988C29.3949 26.988 29.6143 26.9227 29.7543 26.792C29.8943 26.652 29.9876 26.47 30.0343 26.246C30.0809 26.0127 30.1043 25.7653 30.1043 25.504V20.142C30.1043 19.8807 30.0809 19.638 30.0343 19.414C29.9876 19.19 29.8943 19.0127 29.7543 18.882C29.6143 18.742 29.3949 18.672 29.0963 18.672C28.8163 18.672 28.6063 18.742 28.4663 18.882C28.3263 19.0127 28.2329 19.19 28.1863 19.414C28.1396 19.638 28.1163 19.8807 28.1163 20.142V25.504C28.1163 25.7653 28.1349 26.0127 28.1723 26.246C28.2189 26.47 28.3123 26.652 28.4523 26.792C28.5923 26.9227 28.8069 26.988 29.0963 26.988ZM34.8387 28.5V17.16H36.4487L38.9687 23.068V17.16H40.8727V28.5H39.3327L36.8127 22.228V28.5H34.8387ZM44.4946 28.5V18.882H42.7446V17.16H48.5406V18.882H46.8186V28.5H44.4946ZM49.4528 28.5L51.6508 17.16H54.2128L56.3968 28.5H54.2548L53.8488 26.008H52.0568L51.6228 28.5H49.4528ZM52.2668 24.594H53.6248L52.9388 20.016L52.2668 24.594ZM61.3856 28.654C60.5456 28.654 59.8783 28.4953 59.3836 28.178C58.8983 27.8607 58.5576 27.422 58.3616 26.862C58.1656 26.2927 58.0676 25.6347 58.0676 24.888V20.814C58.0676 20.03 58.1656 19.358 58.3616 18.798C58.5576 18.2287 58.8983 17.79 59.3836 17.482C59.8783 17.174 60.5456 17.02 61.3856 17.02C62.1976 17.02 62.8323 17.1553 63.2896 17.426C63.7563 17.6967 64.083 18.0793 64.2696 18.574C64.4656 19.0687 64.5636 19.6427 64.5636 20.296V21.248H62.3236V20.184C62.3236 19.9227 62.3096 19.68 62.2816 19.456C62.2536 19.2227 62.1743 19.036 62.0436 18.896C61.9223 18.7467 61.7076 18.672 61.3996 18.672C61.0916 18.672 60.8676 18.7467 60.7276 18.896C60.5876 19.0453 60.499 19.2413 60.4616 19.484C60.4243 19.7173 60.4056 19.9787 60.4056 20.268V25.42C60.4056 25.7373 60.429 26.0173 60.4756 26.26C60.5316 26.4933 60.6296 26.6753 60.7696 26.806C60.919 26.9273 61.129 26.988 61.3996 26.988C61.6983 26.988 61.9083 26.918 62.0296 26.778C62.1603 26.6287 62.2396 26.4327 62.2676 26.19C62.305 25.9473 62.3236 25.6907 62.3236 25.42V24.314H64.5636V25.252C64.5636 25.9147 64.4703 26.5027 64.2836 27.016C64.097 27.52 63.775 27.9213 63.3176 28.22C62.8603 28.5093 62.2163 28.654 61.3856 28.654ZM67.8779 28.5V18.882H66.1279V17.16H71.9239V18.882H70.2019V28.5H67.8779ZM81.3246 28.654C80.4659 28.654 79.7986 28.5093 79.3226 28.22C78.8466 27.9213 78.5106 27.4967 78.3146 26.946C78.1279 26.386 78.0346 25.7093 78.0346 24.916V17.16H80.3166V25.238C80.3166 25.518 80.3353 25.7933 80.3726 26.064C80.4193 26.3347 80.5126 26.554 80.6526 26.722C80.8019 26.89 81.0259 26.974 81.3246 26.974C81.6326 26.974 81.8566 26.89 81.9966 26.722C82.1459 26.554 82.2393 26.3347 82.2766 26.064C82.3139 25.7933 82.3326 25.518 82.3326 25.238V17.16H84.6146V24.916C84.6146 25.7093 84.5166 26.386 84.3206 26.946C84.1339 27.4967 83.8026 27.9213 83.3266 28.22C82.8506 28.5093 82.1833 28.654 81.3246 28.654ZM90.0063 28.654C89.3063 28.654 88.723 28.528 88.2563 28.276C87.7897 28.0147 87.435 27.6273 87.1923 27.114C86.959 26.5913 86.8237 25.9287 86.7863 25.126L88.7743 24.79C88.793 25.2567 88.8397 25.6487 88.9143 25.966C88.9983 26.274 89.1197 26.5073 89.2783 26.666C89.4463 26.8153 89.6517 26.89 89.8943 26.89C90.193 26.89 90.3937 26.7967 90.4963 26.61C90.6083 26.4233 90.6643 26.2087 90.6643 25.966C90.6643 25.49 90.5477 25.0933 90.3143 24.776C90.0903 24.4493 89.7917 24.1227 89.4183 23.796L88.2423 22.774C87.8223 22.4193 87.477 22.018 87.2063 21.57C86.945 21.122 86.8143 20.5713 86.8143 19.918C86.8143 18.9847 87.085 18.2707 87.6263 17.776C88.177 17.272 88.9283 17.02 89.8803 17.02C90.4497 17.02 90.9163 17.1133 91.2803 17.3C91.6443 17.4867 91.9243 17.7387 92.1203 18.056C92.3257 18.364 92.4657 18.7047 92.5403 19.078C92.6243 19.442 92.6757 19.806 92.6943 20.17L90.7203 20.464C90.7017 20.1187 90.669 19.8153 90.6223 19.554C90.585 19.2927 90.501 19.0873 90.3703 18.938C90.249 18.7887 90.0623 18.714 89.8103 18.714C89.5397 18.714 89.339 18.8167 89.2083 19.022C89.0777 19.218 89.0123 19.4373 89.0123 19.68C89.0123 20.0813 89.101 20.4127 89.2783 20.674C89.465 20.926 89.717 21.192 90.0343 21.472L91.1823 22.48C91.6583 22.8907 92.0643 23.362 92.4003 23.894C92.7457 24.4167 92.9183 25.0653 92.9183 25.84C92.9183 26.372 92.797 26.8527 92.5543 27.282C92.3117 27.7113 91.971 28.0473 91.5323 28.29C91.103 28.5327 90.5943 28.654 90.0063 28.654Z" fill="white"/>
</svg>
