<svg width="183" height="54" viewBox="0 0 183 54" fill="none" xmlns="http://www.w3.org/2000/svg">
<rect width="183" height="54" rx="27" fill="#F837B7"/>
<path d="M47.2215 34.192C46.3788 34.192 45.5948 34.0373 44.8695 33.728C44.1548 33.4187 43.5308 32.992 42.9975 32.448C42.4748 31.8933 42.0642 31.2427 41.7655 30.496C41.4668 29.7493 41.3175 28.928 41.3175 28.032C41.3175 27.1467 41.4615 26.3307 41.7495 25.584C42.0482 24.8267 42.4642 24.176 42.9975 23.632C43.5308 23.0773 44.1548 22.6507 44.8695 22.352C45.5842 22.0427 46.3682 21.888 47.2215 21.888C48.0642 21.888 48.8162 22.032 49.4775 22.32C50.1495 22.608 50.7148 22.9867 51.1735 23.456C51.6322 23.9147 51.9628 24.416 52.1655 24.96L50.4695 25.76C50.2135 25.12 49.8028 24.6027 49.2375 24.208C48.6828 23.8027 48.0108 23.6 47.2215 23.6C46.4322 23.6 45.7335 23.7867 45.1255 24.16C44.5175 24.5333 44.0428 25.0507 43.7015 25.712C43.3708 26.3733 43.2055 27.1467 43.2055 28.032C43.2055 28.9173 43.3708 29.696 43.7015 30.368C44.0428 31.0293 44.5175 31.5467 45.1255 31.92C45.7335 32.2827 46.4322 32.464 47.2215 32.464C48.0108 32.464 48.6828 32.2667 49.2375 31.872C49.8028 31.4773 50.2135 30.96 50.4695 30.32L52.1655 31.12C51.9628 31.6533 51.6322 32.1547 51.1735 32.624C50.7148 33.0933 50.1495 33.472 49.4775 33.76C48.8162 34.048 48.0642 34.192 47.2215 34.192ZM59.899 34.192C59.035 34.192 58.2297 34.0373 57.483 33.728C56.747 33.4187 56.0963 32.9867 55.531 32.432C54.9763 31.8773 54.539 31.2267 54.219 30.48C53.9097 29.7333 53.755 28.9173 53.755 28.032C53.755 27.1467 53.9097 26.3307 54.219 25.584C54.539 24.8267 54.9763 24.176 55.531 23.632C56.0857 23.0773 56.7363 22.6507 57.483 22.352C58.2297 22.0427 59.035 21.888 59.899 21.888C60.7737 21.888 61.579 22.0427 62.315 22.352C63.0617 22.6507 63.7123 23.0773 64.267 23.632C64.8323 24.1867 65.2697 24.8373 65.579 25.584C65.8883 26.3307 66.043 27.1467 66.043 28.032C66.043 28.9173 65.883 29.7333 65.563 30.48C65.2537 31.2267 64.8217 31.8773 64.267 32.432C63.7123 32.9867 63.0617 33.4187 62.315 33.728C61.5683 34.0373 60.763 34.192 59.899 34.192ZM59.899 32.464C60.5177 32.464 61.083 32.352 61.595 32.128C62.1177 31.904 62.571 31.5947 62.955 31.2C63.339 30.7947 63.6377 30.3253 63.851 29.792C64.0643 29.248 64.171 28.6613 64.171 28.032C64.171 27.4027 64.0643 26.8213 63.851 26.288C63.6377 25.7547 63.339 25.2853 62.955 24.88C62.571 24.4747 62.1177 24.16 61.595 23.936C61.083 23.712 60.5177 23.6 59.899 23.6C59.2803 23.6 58.7097 23.712 58.187 23.936C57.675 24.16 57.227 24.4747 56.843 24.88C56.459 25.2853 56.1603 25.7547 55.947 26.288C55.7443 26.8213 55.643 27.4027 55.643 28.032C55.643 28.6613 55.7443 29.248 55.947 29.792C56.1603 30.3253 56.459 30.7947 56.843 31.2C57.227 31.5947 57.6803 31.904 58.203 32.128C58.7257 32.352 59.291 32.464 59.899 32.464ZM68.1539 34L68.1539 22.08L69.6739 22.08L76.3619 31.312L75.6419 31.424L75.6419 22.08L77.5139 22.08L77.5139 34L75.9939 34L69.3539 24.704L70.0419 24.576L70.0419 34L68.1539 34ZM82.094 34L82.094 23.76L78.926 23.76L78.926 22.08L87.086 22.08L87.086 23.76L83.966 23.76L83.966 34L82.094 34ZM86.6448 34L90.8368 22.08L93.1728 22.08L97.3648 34L95.3488 34L94.4368 31.328L89.5888 31.328L88.6608 34L86.6448 34ZM90.1328 29.648L93.8608 29.648L91.7488 23.408L92.2768 23.408L90.1328 29.648ZM103.847 34.192C103.004 34.192 102.22 34.0373 101.495 33.728C100.78 33.4187 100.156 32.992 99.6225 32.448C99.0998 31.8933 98.6892 31.2427 98.3905 30.496C98.0918 29.7493 97.9425 28.928 97.9425 28.032C97.9425 27.1467 98.0865 26.3307 98.3745 25.584C98.6732 24.8267 99.0892 24.176 99.6225 23.632C100.156 23.0773 100.78 22.6507 101.495 22.352C102.209 22.0427 102.993 21.888 103.847 21.888C104.689 21.888 105.441 22.032 106.102 22.32C106.775 22.608 107.34 22.9867 107.799 23.456C108.257 23.9147 108.588 24.416 108.791 24.96L107.095 25.76C106.839 25.12 106.428 24.6027 105.863 24.208C105.308 23.8027 104.636 23.6 103.847 23.6C103.057 23.6 102.359 23.7867 101.751 24.16C101.143 24.5333 100.668 25.0507 100.327 25.712C99.9958 26.3733 99.8305 27.1467 99.8305 28.032C99.8305 28.9173 99.9958 29.696 100.327 30.368C100.668 31.0293 101.143 31.5467 101.751 31.92C102.359 32.2827 103.057 32.464 103.847 32.464C104.636 32.464 105.308 32.2667 105.863 31.872C106.428 31.4773 106.839 30.96 107.095 30.32L108.791 31.12C108.588 31.6533 108.257 32.1547 107.799 32.624C107.34 33.0933 106.775 33.472 106.102 33.76C105.441 34.048 104.689 34.192 103.847 34.192ZM112.844 34L112.844 23.76L109.676 23.76L109.676 22.08L117.836 22.08L117.836 23.76L114.716 23.76L114.716 34L112.844 34ZM126.509 34.192C125.623 34.192 124.834 34.0053 124.141 33.632C123.458 33.2587 122.919 32.7467 122.525 32.096C122.141 31.4453 121.949 30.704 121.949 29.872L121.949 22.08L123.837 22.08L123.837 29.792C123.837 30.3147 123.949 30.7787 124.173 31.184C124.407 31.5893 124.722 31.904 125.117 32.128C125.522 32.352 125.986 32.464 126.509 32.464C127.042 32.464 127.506 32.352 127.901 32.128C128.306 31.904 128.621 31.5893 128.845 31.184C129.079 30.7787 129.197 30.3147 129.197 29.792L129.197 22.08L131.069 22.08L131.069 29.872C131.069 30.704 130.877 31.4453 130.493 32.096C130.109 32.7467 129.57 33.2587 128.877 33.632C128.194 34.0053 127.405 34.192 126.509 34.192ZM137.611 34.192C136.864 34.192 136.171 34.0533 135.531 33.776C134.891 33.488 134.347 33.0987 133.899 32.608C133.451 32.1173 133.12 31.552 132.907 30.912L134.507 30.24C134.795 30.976 135.216 31.5413 135.771 31.936C136.326 32.3307 136.966 32.528 137.691 32.528C138.118 32.528 138.491 32.464 138.811 32.336C139.131 32.1973 139.376 32.0053 139.547 31.76C139.728 31.5147 139.819 31.232 139.819 30.912C139.819 30.4747 139.696 30.128 139.451 29.872C139.206 29.616 138.843 29.4133 138.363 29.264L136.123 28.56C135.227 28.2827 134.544 27.8613 134.075 27.296C133.606 26.72 133.371 26.048 133.371 25.28C133.371 24.608 133.536 24.0213 133.867 23.52C134.198 23.008 134.651 22.608 135.227 22.32C135.814 22.032 136.48 21.888 137.227 21.888C137.942 21.888 138.592 22.016 139.179 22.272C139.766 22.5173 140.267 22.8587 140.683 23.296C141.11 23.7333 141.419 24.24 141.611 24.816L140.043 25.504C139.808 24.8747 139.44 24.3893 138.939 24.048C138.448 23.7067 137.878 23.536 137.227 23.536C136.832 23.536 136.486 23.6053 136.187 23.744C135.888 23.872 135.654 24.064 135.483 24.32C135.323 24.5653 135.243 24.8533 135.243 25.184C135.243 25.568 135.366 25.9093 135.611 26.208C135.856 26.5067 136.23 26.7307 136.731 26.88L138.811 27.536C139.76 27.824 140.475 28.24 140.955 28.784C141.435 29.3173 141.675 29.984 141.675 30.784C141.675 31.4453 141.499 32.032 141.147 32.544C140.806 33.056 140.331 33.4613 139.723 33.76C139.115 34.048 138.411 34.192 137.611 34.192Z" fill="black"/>
</svg>
